<?xml version="1.0" encoding="UTF-8" standalone="no"?>
<svg
   xmlns:dc="http://purl.org/dc/elements/1.1/"
   xmlns:cc="http://creativecommons.org/ns#"
   xmlns:rdf="http://www.w3.org/1999/02/22-rdf-syntax-ns#"
   xmlns:svg="http://www.w3.org/2000/svg"
   xmlns="http://www.w3.org/2000/svg"
   height="16"
   id="svg7384"
   version="1.1"
   width="16">
  <metadata
     id="metadata90">
    <rdf:RDF>
      <cc:Work
         rdf:about="">
        <dc:format>image/svg+xml</dc:format>
        <dc:type
           rdf:resource="http://purl.org/dc/dcmitype/StillImage" />
        <dc:title>elementary Symbolic Icon Theme</dc:title>
      </cc:Work>
    </rdf:RDF>
  </metadata>
  <title
     id="title9167">elementary Symbolic Icon Theme</title>
  <defs
     id="defs7386">
    <filter
       color-interpolation-filters="sRGB"
       id="filter7554">
      <feBlend
         id="feBlend7556"
         in2="BackgroundImage"
         mode="darken" />
    </filter>
    <filter
       color-interpolation-filters="sRGB"
       id="filter7554-7">
      <feBlend
         id="feBlend7556-6"
         in2="BackgroundImage"
         mode="darken" />
    </filter>
  </defs>
  <g
     id="layer9"
     label="status"
     style="display:inline"
     transform="translate(-313.0004,-188)" />
  <g
     id="layer10"
     style="display:inline"
     transform="translate(-313.0004,-188)" />
  <g
     id="layer13"
     style="display:inline"
     transform="translate(-313.0004,-188)" />
  <g
     id="layer14"
     transform="translate(-313.0004,-188)" />
  <g
     id="layer15"
     style="display:inline"
     transform="translate(-313.0004,-188)" />
  <g
     id="g71291"
     style="display:inline"
     transform="translate(-313.0004,-188)" />
  <g
     id="layer12"
     style="display:inline"
     transform="translate(-313.0004,-188)">
    <path
       d="m 321.0004,190 2.25,2.22322 -1.71428,1.71428 c -0.0129,0.0129 -0.0147,0.0134 -0.0268,0.0268 -0.38059,0.42057 -0.37876,1.06767 0.0268,1.47321 0.40534,0.40535 1.05262,0.43359 1.47321,0.0536 l 0.21429,-0.21428 1.55357,-1.52679 2.22321,2.25 0,-6 z m -6,6 0,6 6,0 -2.25,-2.25 1.71429,-1.71428 c 0.0129,-0.0129 0.0147,-0.0134 0.0268,-0.0268 0.38059,-0.42058 0.37876,-1.06767 -0.0268,-1.47321 -0.40534,-0.40535 -1.07941,-0.43358 -1.5,-0.0536 l -0.1875,0.21428 -1.55357,1.55357 z"
       id="path3288-51-5"
       style="color:#bebebe;fill:#bebebe;fill-opacity:1;fill-rule:nonzero;stroke:none;stroke-width:1;marker:none;visibility:visible;display:inline;overflow:visible;enable-background:accumulate" />
  </g>
</svg>
